<svg width="24" height="24" viewBox="0 0 24 24" fill="none" xmlns="http://www.w3.org/2000/svg">
<path d="M16.3833 18.4455L16.384 18.4461C16.7499 18.7787 16.788 19.3501 16.4484 19.7237C16.116 20.0893 15.5451 20.1277 15.1715 19.7887L15.1716 19.7888L16.3833 18.4455ZM16.3833 18.4455L12.7551 15.1642L9.13385 11.8891M16.3833 18.4455L9.13385 11.8891M9.13385 11.8891L16.3781 5.56215L16.3781 5.56221L16.384 5.55685C16.7483 5.22568 16.7838 4.66546 16.4808 4.29508L16.4742 4.28702L16.4672 4.27931C16.136 3.91502 15.5758 3.87951 15.2054 4.18254L15.2053 4.18237L15.1951 4.19124L7.93888 10.5475L7.9378 10.5484C7.12435 11.2662 7.09826 12.4813 7.91419 13.2252L7.91539 13.2263L15.1709 19.7881L9.13385 11.8891Z" fill="#454545" stroke="#454545" stroke-width="0.8"/>
</svg>
